HIERARCHY
ROOT Hips
{
	OFFSET 0.000000 0.000000 0.000000
	CHANNELS 6 Xposition Yposition Zposition Zrotation Yrotation Xrotation 
	JOINT LHipJoint
	{
		OFFSET 0.000000 0.000000 0.000000
		CHANNELS 3 Zrotation Yrotation Xrotation
		JOINT LeftUpLeg
		{
			OFFSET 8.178360 -10.767780 5.035740
			CHANNELS 3 Zrotation Yrotation Xrotation
			JOINT LeftLeg
			{
				OFFSET 14.688660 -40.356780 0.000000
				CHANNELS 3 Zrotation Yrotation Xrotation
				JOINT LeftFoot
				{
					OFFSET 15.373200 -42.237540 0.000000
					CHANNELS 3 Zrotation Yrotation Xrotation
					JOINT LeftToeBase
					{
						OFFSET 0.945840 -2.598660 13.935300
						CHANNELS 3 Zrotation Yrotation Xrotation
						End Site
						{
							OFFSET 0.000000 0.000000 0.000000
						}
					}
				}
			}
		}
	}
	JOINT RHipJoint
	{
		OFFSET 0.000000 0.000000 0.000000
		CHANNELS 3 Zrotation Yrotation Xrotation
		JOINT RightUpLeg
		{
			OFFSET -7.833120 -10.767780 5.035740
			CHANNELS 3 Zrotation Yrotation Xrotation
			JOINT RightLeg
			{
				OFFSET -15.255180 -41.913300 0.000000
				CHANNELS 3 Zrotation Yrotation Xrotation
				JOINT RightFoot
				{
					OFFSET -15.409560 -42.337380 0.000000
					CHANNELS 3 Zrotation Yrotation Xrotation
					JOINT RightToeBase
					{
						OFFSET -0.988380 -2.715540 14.178900
						CHANNELS 3 Zrotation Yrotation Xrotation
						End Site
						{
							OFFSET 0.000000 0.000000 0.000000
						}
					}
				}
			}
		}
	}
	JOINT LowerBack
	{
		OFFSET 0.000000 0.000000 0.000000
		CHANNELS 3 Zrotation Yrotation Xrotation
		JOINT Spine
		{
			OFFSET 0.169620 12.213540 -1.160280
			CHANNELS 3 Zrotation Yrotation Xrotation
			JOINT Spine1
			{
				OFFSET 0.340320 12.293100 -0.256500
				CHANNELS 3 Zrotation Yrotation Xrotation
				JOINT Neck
				{
					OFFSET 0.000000 0.000000 0.000000
					CHANNELS 3 Zrotation Yrotation Xrotation
					JOINT Neck1
					{
						OFFSET -0.325020 10.477440 1.032120
						CHANNELS 3 Zrotation Yrotation Xrotation
						JOINT Head
						{
							OFFSET 0.624420 10.568160 -0.743820
							CHANNELS 3 Zrotation Yrotation Xrotation
							End Site
							{
								OFFSET 0.000000 0.000000 0.000000
							}
						}
					}
				}
				JOINT LeftShoulder
				{
					OFFSET 0.000000 0.000000 0.000000
					CHANNELS 3 Zrotation Yrotation Xrotation
					JOINT LeftArm
					{
						OFFSET 20.174460 7.205340 -1.867260
						CHANNELS 3 Zrotation Yrotation Xrotation
						JOINT LeftForeArm
						{
							OFFSET 29.898000 -0.000000 -0.000000
							CHANNELS 3 Zrotation Yrotation Xrotation
							JOINT LeftHand
							{
								OFFSET 20.901360 -0.000000 -0.000000
								CHANNELS 3 Zrotation Yrotation Xrotation
								JOINT LeftFingerBase
								{
									OFFSET 0.000000 0.000000 0.000000
									CHANNELS 3 Zrotation Yrotation Xrotation
									JOINT LeftHandIndex1
									{
										OFFSET 4.291560 -0.000000 -0.000000
										CHANNELS 3 Zrotation Yrotation Xrotation
										End Site
										{
											OFFSET 0.000000 0.000000 0.000000
										}
									}
								}
								JOINT LThumb
								{
									OFFSET 0.000000 0.000000 0.000000
									CHANNELS 3 Zrotation Yrotation Xrotation
									End Site
									{
										OFFSET 0.000000 0.000000 0.000000
									}
								}
							}
						}
					}
				}
				JOINT RightShoulder
				{
					OFFSET 0.000000 0.000000 0.000000
					CHANNELS 3 Zrotation Yrotation Xrotation
					JOINT RightArm
					{
						OFFSET -18.819600 8.244300 -2.427900
						CHANNELS 3 Zrotation Yrotation Xrotation
						JOINT RightForeArm
						{
							OFFSET -31.451400 -0.000000 -0.000000
							CHANNELS 3 Zrotation Yrotation Xrotation
							JOINT RightHand
							{
								OFFSET -20.665020 -0.000000 -0.000000
								CHANNELS 3 Zrotation Yrotation Xrotation
								JOINT RightFingerBase
								{
									OFFSET 0.000000 0.000000 0.000000
									CHANNELS 3 Zrotation Yrotation Xrotation
									JOINT RightHandIndex1
									{
										OFFSET -3.735180 -0.000000 -0.000000
										CHANNELS 3 Zrotation Yrotation Xrotation
										End Site
										{
											OFFSET 0.000000 0.000000 0.000000
										}
									}
								}
								JOINT RThumb
								{
									OFFSET 0.000000 0.000000 0.000000
									CHANNELS 3 Zrotation Yrotation Xrotation
									End Site
									{
										OFFSET 0.000000 0.000000 0.000000
									}
								}
							}
						}
					}
				}
			}
		}
	}
}
MOTION
Frames:	12
Frame Time:	0.0333333
-81.301416 107.889306 82.471134 -3.672973 69.473926 0.255731 -2.580700 -0.061064 0.538246 -13.126851 3.904276 -30.529837 -0.105572 8.327926 22.847934 -1.291789 7.721357 -0.362226 0.000800 -0.185900 -0.510800 1.416750 -1.102242 1.764147 18.881847 -4.534051 -1.172507 -0.065287 -5.155558 16.070507 3.787095 -17.969384 -11.768734 -0.133300 2.353000 -6.482300 3.493037 3.066859 9.807373 0.945384 4.569092 1.290342 -3.261787 2.364450 -3.909723 -11.585346 -4.460882 -17.033831 4.604473 -3.416641 19.681281 3.974000 -2.302700 14.052500 -6.246675 -0.932358 -1.664381 -80.803635 1.605164 20.276343 18.531713 -26.189229 -5.242959 -1.341782 -2.542941 1.672069 22.409354 23.940446 11.072500 -7.125000 0.000000 0.000000 -7.145400 58.381200 -2.346300 5.156234 1.587566 -1.012209 74.386558 -3.899155 16.519331 -13.493154 20.555758 -2.632540 0.340887 -0.267086 10.732177 -14.362409 9.036565 -2.416600 7.125000 0.000000 0.000000 8.728400 -20.495400 5.179400 
-79.832940 107.713428 83.108994 -3.890498 71.656049 0.453311 -2.895782 -0.121699 0.335266 -11.340269 -0.759576 -29.157504 -0.915527 6.713061 17.986547 -2.204374 11.853047 -1.685404 0.024000 -1.001200 -2.752000 1.408817 -1.141242 1.817807 19.250859 -5.861374 0.304144 0.175557 -4.335241 13.796094 4.169268 -19.426489 -11.930584 -0.185600 2.774400 -7.651200 3.946887 3.459037 9.907814 0.815060 5.135935 1.463393 -3.843780 2.686394 -3.531435 -11.462225 -4.407635 -17.260440 4.133046 -3.304006 19.161079 3.757700 -2.287700 13.822600 -6.237002 -0.902922 -1.673297 -80.489033 2.414381 17.840163 18.655019 -26.427709 -5.308316 -1.321559 -2.530846 1.741735 22.313273 23.794610 10.954200 -7.125000 0.000000 0.000000 -7.206000 58.196600 -2.334400 5.152774 1.546182 -0.982588 73.611572 -2.025653 15.248789 -13.419600 20.481229 -2.608264 0.328963 -0.266596 10.593236 -14.022995 9.044188 -2.359300 7.125000 0.000000 0.000000 8.979300 -20.501700 5.330600 
-78.070536 107.429130 83.630010 -5.670899 72.986920 -1.043165 -3.047825 -0.103115 0.181390 -9.146108 -4.951071 -27.857041 -1.344776 5.650829 14.949441 -2.923388 14.826728 -4.035894 0.033700 -1.185700 -3.259800 1.404226 -1.193105 1.902118 19.948101 -5.852993 2.547819 0.389787 -3.603307 11.802489 4.460035 -20.700050 -12.957554 -0.111100 2.148800 -5.917000 4.297186 3.855482 10.230342 0.940376 5.707337 1.440618 -3.893762 2.978413 -3.712963 -11.078902 -4.202219 -17.217486 3.836127 -3.101004 19.358723 3.586000 -2.196500 13.863500 -6.216907 -0.866018 -1.705229 -80.623308 3.920658 15.223359 18.324081 -26.103900 -5.112576 -1.484006 -2.503240 3.295012 23.628046 24.171796 11.829200 -7.125000 0.000000 0.000000 -5.816200 58.915600 -1.982400 5.182893 1.480623 -0.982906 72.880636 -0.585741 14.300675 -13.568418 20.657789 -2.651508 0.382161 -0.252886 9.847131 -15.299198 8.466188 -2.420900 7.125000 0.000000 0.000000 8.047400 -21.047200 4.665800 
-76.038888 107.171334 83.852868 -6.070292 73.976074 -0.759123 -3.142768 -0.125412 0.099272 -8.538159 -6.720330 -27.536030 -1.513252 5.080959 13.417554 -2.612745 13.559584 -3.695908 0.073700 -1.751100 -4.818200 1.373104 -1.219412 1.923497 19.860631 -6.685585 3.202990 0.421954 -3.403223 11.269829 4.586956 -21.143927 -12.785593 -0.232700 3.104700 -8.570300 4.612976 4.267173 9.704654 0.874120 6.254138 1.490700 -4.262359 3.278829 -3.267465 -10.943595 -4.292088 -17.245669 3.849774 -3.268804 19.192616 3.539000 -2.241600 13.791100 -6.264177 -0.791001 -1.713869 -80.820061 4.911599 12.545012 17.652067 -25.309057 -4.731591 -1.536952 -2.500514 4.822932 23.262638 24.568346 11.798600 -7.125000 0.000000 0.000000 -6.443100 59.275100 -2.252600 5.181415 1.444417 -0.965599 72.708100 1.230404 12.355008 -14.052619 21.345450 -2.836347 0.401640 -0.234483 8.963821 -15.741018 8.225959 -2.421500 7.125000 0.000000 0.000000 7.725700 -21.287700 4.433400 
-73.887378 106.902096 83.995020 -1.839790 74.942047 4.043989 -3.286186 -0.251501 0.172461 -11.366478 -3.859713 -28.669679 -1.476844 5.114893 13.611944 -1.546173 9.118491 -0.055034 0.069700 -1.703600 -4.687300 1.247879 -1.280485 1.915164 18.226218 -7.595482 3.198335 0.316167 -3.675979 12.071420 4.247781 -19.845372 -12.565779 -0.234100 3.114000 -8.596300 3.313598 4.515674 9.413914 0.649879 6.400683 1.413893 -4.094337 3.372492 -3.356062 -10.813779 -4.382607 -17.521574 3.928752 -3.411779 19.193557 3.515900 -2.269700 13.881400 -6.287273 -0.698617 -1.749055 -80.928907 6.555020 10.900320 17.104690 -24.680654 -4.448488 -1.464136 -2.465808 5.897002 21.706078 24.117416 10.756800 -7.125000 0.000000 0.000000 -8.086600 58.419400 -2.665300 5.138882 1.407334 -0.977852 72.806486 2.489101 11.824202 -15.331524 23.122884 -3.365999 0.390123 -0.199627 6.086908 -15.241608 8.580744 -2.434000 7.125000 0.000000 0.000000 8.094200 -20.961100 4.709400 
-71.258826 106.570212 83.989596 -7.804345 75.224591 -2.284359 -3.015302 -0.098801 0.275820 -10.562016 -3.752009 -27.998900 -1.114943 6.052006 16.326311 -0.855221 5.777494 1.100122 0.000300 0.112900 0.310100 1.279340 -1.314559 1.916464 19.049010 -7.897902 6.976549 0.524239 -2.704938 9.380124 4.563377 -20.963426 -11.608449 -0.274400 3.369300 -9.308700 4.966747 4.613521 10.006896 0.925999 6.758329 1.559546 -4.505338 3.557754 -3.357023 -10.877318 -4.464926 -17.502440 4.138091 -3.524245 18.918095 3.604200 -2.295100 13.772800 -6.313971 -0.584643 -1.767386 -81.171313 8.013020 9.996442 16.231328 -23.565975 -3.996139 -1.442069 -2.471463 7.324951 20.374644 24.306631 10.114800 -7.125000 0.000000 0.000000 -9.749800 58.330600 -3.198800 5.135143 1.378846 -0.975991 73.200050 3.709809 11.383206 -16.742744 25.000698 -3.983633 0.435370 -0.156773 3.602747 -16.358058 8.366066 -2.550000 7.125000 0.000000 0.000000 7.270700 -21.155700 4.189900 
-68.300202 106.854510 83.777580 -2.545610 75.353485 3.011684 -3.243115 -0.085311 0.354916 -12.468638 -3.410668 -27.678398 -1.058701 6.175038 16.728207 -0.775539 5.838813 4.811724 0.000900 0.190100 0.522400 1.092018 -1.466659 1.906477 16.938959 -8.621283 8.805780 0.552463 -2.325970 8.259687 4.811832 -21.663605 -9.634714 -0.351000 3.806400 -10.532700 3.812629 4.897988 9.827108 0.591710 6.974906 1.465842 -4.683106 3.677751 -3.511815 -10.898447 -4.615346 -17.446764 4.474245 -3.764221 19.048793 3.726400 -2.354900 13.868800 -6.413364 -0.480527 -1.774026 -81.121175 9.173919 8.906194 14.968098 -21.866645 -3.370873 -1.506739 -2.369491 9.411758 19.682220 23.599470 9.506100 -7.125000 0.000000 0.000000 -10.134600 57.406700 -3.100700 5.083510 1.356671 -0.991573 74.446757 4.277922 10.946912 -18.381151 27.109568 -4.763282 0.446832 -0.139152 1.998838 -16.836421 8.837638 -2.770600 7.125000 0.000000 0.000000 6.914300 -20.649200 4.061000 
-65.077152 107.033400 83.414976 1.938793 75.813679 7.472823 -3.456668 -0.088475 0.500156 -14.627306 -2.421907 -27.114310 -0.982751 6.323559 17.320507 -0.461933 4.428042 6.717578 0.002000 -0.291000 -0.799500 0.939524 -1.582864 1.851898 15.006862 -9.171343 8.939945 0.317693 -3.176451 10.500423 4.917303 -21.934858 -8.152232 -0.364400 3.877500 -10.732300 3.055815 4.907877 9.368150 0.402290 6.887211 1.491202 -4.735201 3.645112 -3.323977 -11.172836 -4.808113 -17.497676 4.731357 -3.956529 18.900838 3.851000 -2.428300 13.851000 -6.495898 -0.374087 -1.781410 -81.965019 10.111929 6.174748 14.205147 -20.791123 -2.993484 -1.520146 -2.328220 12.502845 18.203349 23.816943 8.802800 -7.125000 0.000000 0.000000 -11.958500 57.307300 -3.640000 5.040917 1.315952 -0.997035 75.545988 4.753049 10.992152 -19.723946 28.763720 -5.438859 0.472518 -0.135901 0.211395 -17.608245 9.703135 -3.186500 7.125000 0.000000 0.000000 6.340900 -19.694500 3.856600 
-61.679430 107.266500 82.896378 4.585802 76.379115 9.913388 -3.608413 -0.040389 0.721993 -15.993058 -1.610588 -25.913435 -0.897037 6.436885 17.918787 0.019071 1.380503 6.970287 0.072400 1.735700 4.775900 0.821071 -1.653081 1.748166 13.426826 -9.496423 7.993368 -0.232638 -4.876296 15.098730 4.925445 -21.960485 -5.341359 -0.681800 5.279600 -14.707700 2.912330 4.796895 8.961950 0.340452 6.723464 1.476536 -4.851525 3.561079 -3.193095 -11.218326 -4.926640 -17.435788 4.774179 -4.114721 19.051031 3.853700 -2.495900 13.922700 -6.611128 -0.320386 -1.764626 -82.457251 10.504643 5.627408 12.905756 -18.876604 -2.396142 -2.035423 -2.177370 13.152856 23.168079 23.646808 11.446700 -7.125000 0.000000 0.000000 -5.926100 58.269100 -1.928000 5.044599 1.264397 -1.017277 76.252460 4.800418 12.162570 -20.413660 29.597112 -5.804536 0.479336 -0.163070 -0.468392 -17.878708 10.980934 -3.663700 7.125000 0.000000 0.000000 6.150800 -18.311800 3.929500 
-58.193160 107.716440 82.272366 8.415407 76.448927 13.466467 -3.856650 0.031120 1.043901 -17.731851 -0.348027 -23.910822 -1.002947 5.969048 16.903220 0.221347 -0.125445 7.031443 0.161200 2.586500 7.129500 0.681232 -1.721378 1.585426 11.528367 -8.940827 5.393974 -1.323654 -7.464616 22.349482 4.885912 -22.242934 -1.632135 -0.137200 2.387500 -6.577700 2.258474 4.761558 8.611722 0.300929 6.608664 1.373378 -4.658409 3.476666 -3.339136 -11.253767 -4.943331 -17.230091 4.759609 -4.134944 19.320928 3.844300 -2.512400 14.004500 -6.699017 -0.297574 -1.754797 -83.211068 10.956445 5.483991 12.008536 -17.446803 -2.021117 -1.785642 -2.370214 13.696742 18.988856 24.908730 9.659200 -7.125000 0.000000 0.000000 -11.555300 58.709700 -3.906200 5.068596 1.202795 -1.044292 76.625402 4.741295 13.500358 -20.405458 29.592894 -5.809794 0.441057 -0.213545 0.627994 -17.019429 12.260177 -3.879500 7.125000 0.000000 0.000000 6.787600 -17.006800 4.537700 
-54.766530 108.200712 81.724248 10.184387 76.604575 14.934950 -4.043359 0.168537 1.401261 -19.173713 0.630145 -21.520970 -1.127359 5.371788 15.527378 0.326206 -1.093560 6.916283 0.249700 3.215100 8.878100 0.556917 -1.722281 1.353790 10.496302 -7.893770 1.956053 -2.967664 -10.230515 30.541549 5.016597 -24.524019 4.354158 -0.234000 -3.113200 8.594000 2.023691 4.591896 8.399508 0.318528 6.369035 1.241363 -4.512141 3.320445 -3.579669 -11.420339 -4.987356 -17.067243 4.964110 -4.169520 19.515385 3.955400 -2.519900 14.085000 -6.724386 -0.270132 -1.780306 -84.083569 11.491612 6.307893 11.883808 -17.177569 -1.965782 -1.679299 -2.379654 12.773253 18.128306 24.194310 8.966200 -7.125000 0.000000 0.000000 -12.139500 57.766700 -3.831100 5.076215 1.171783 -1.058995 77.362679 4.561159 14.114640 -20.152493 29.288358 -5.686416 0.385840 -0.246802 2.912319 -15.887892 12.681847 -3.729400 7.125000 0.000000 0.000000 7.605700 -16.643100 5.154800 
-51.555528 108.504282 81.279732 13.963842 77.223746 18.106502 -4.199579 0.298343 1.723265 -20.859349 1.036782 -18.610347 -1.253377 4.660998 13.880789 0.305713 -1.159060 7.533156 0.589000 4.913900 13.663100 0.400872 -1.736425 1.117140 9.538962 -7.169968 -2.467544 -5.133172 -12.946373 39.564798 5.068039 -27.212733 8.786955 -1.493000 -7.718800 21.863300 1.111438 4.457222 8.536491 0.348901 6.112947 1.260167 -3.947312 3.152531 -3.778694 -11.271288 -5.245006 -17.242319 5.061380 -4.573426 19.549993 3.878300 -2.646700 14.196900 -6.681783 -0.294225 -1.809428 -84.676458 11.745405 9.117370 12.408721 -17.911162 -2.187050 -1.506199 -2.431147 11.457907 17.072081 23.841551 8.289100 -7.125000 0.000000 0.000000 -13.190700 57.166500 -3.978500 5.074074 1.147601 -1.072411 77.988458 3.972632 14.249511 -20.306199 29.458333 -5.770633 0.361563 -0.241525 3.699200 -15.324569 12.516906 -3.541700 7.125000 0.000000 0.000000 8.009400 -16.865100 5.394700 
